<svg width="80" height="96" viewBox="0 0 80 96" fill="none" xmlns="http://www.w3.org/2000/svg">
<path d="M63.954 74.4061C73.9143 96.3957 52.6998 101.916 37.0523 89.0458C32.4483 103.476 15.2059 92.7057 9.00709 81.516C-4.62432 56.8564 0.882408 31.7169 2.2967 26.527C11.9861 -8.84231 60.4333 -8.90231 68.7686 26.707C70.7246 32.9469 70.7547 40.0268 71.838 47.3766C72.3796 51.0965 72.8009 53.4665 74.2152 57.3664C75.0577 59.6164 76.1711 61.5963 77.9766 64.9563C80.745 70.1762 79.5714 80.226 65.2479 75.0061L63.8938 74.4061H63.954Z" fill="white"/>
<path d="M35.1868 41.858C39.1589 41.858 39.7607 37.1181 39.7607 34.2981C39.7607 31.7482 39.3094 29.7382 38.4367 28.4482C37.6844 27.3083 36.5711 26.7383 35.1868 26.7383C33.8026 26.7383 32.599 27.3083 31.7564 28.4782C30.7935 29.7982 30.2819 31.8082 30.2819 34.2981C30.2819 39.038 32.1175 41.858 35.1568 41.858H35.1868Z" fill="black"/>
<path d="M18.847 41.858C22.8191 41.858 23.4209 37.1181 23.4209 34.2981C23.4209 31.7482 22.9695 29.7382 22.0969 28.4482C21.3446 27.3083 20.2312 26.7383 18.847 26.7383C17.4628 26.7383 16.2591 27.3083 15.4166 28.4782C14.4537 29.7982 13.9421 31.8082 13.9421 34.2981C13.9421 39.038 15.7777 41.858 18.8169 41.858H18.847Z" fill="black"/>
</svg>
