<svg width="397" height="128" viewBox="0 0 397 128" fill="none" xmlns="http://www.w3.org/2000/svg">
<path d="M137.868 0.00390625C131.318 0.00390625 125.935 2.25335 122.306 6.5111C118.768 10.6596 116.976 16.5036 116.976 23.8699V104.123C116.976 111.384 118.715 117.115 122.141 121.165C123.963 123.562 126.522 125.393 129.748 126.61C132.007 127.54 134.661 127.996 137.864 127.996C144.489 127.996 149.94 125.754 153.629 121.512C157.251 117.348 159.084 111.5 159.084 104.123V23.8699C159.084 16.4961 157.247 10.6445 153.629 6.48472C149.94 2.24581 144.489 0.00390625 137.864 0.00390625H137.868ZM152.462 104.123C152.462 109.854 151.175 114.24 148.634 117.16C146.206 119.952 142.581 121.369 137.864 121.369C135.527 121.369 133.686 121.075 132.24 120.468L132.124 120.423C130.034 119.643 128.435 118.524 127.373 117.103L127.238 116.934C124.821 114.115 123.598 109.805 123.598 104.123V23.8699C123.598 18.1201 124.859 13.7267 127.343 10.8103C129.707 8.03711 133.245 6.63168 137.864 6.63168C142.483 6.63168 146.206 8.04842 148.634 10.8367C151.175 13.7568 152.462 18.1427 152.462 23.8699V104.123Z" fill="#8E48FF"/>
<path d="M237.02 32.5699C234.445 30.1622 230.7 28.9941 225.577 28.9941H206.206V54.4464H225.577C238.62 54.4464 240.566 46.5263 240.566 41.8013C240.566 37.8751 239.373 34.7704 237.02 32.5699ZM225.577 47.8149H212.827V35.6219H225.577C233.297 35.6219 233.945 38.8096 233.945 41.8013C233.945 44.793 232.932 47.8187 225.577 47.8187V47.8149Z" fill="#8E48FF"/>
<path d="M270.73 63.8625C274.283 57.7811 276.087 50.3582 276.087 41.7975C276.087 27.3777 271.11 16.4093 261.293 9.20127C252.977 3.09723 241.617 0 227.523 0H191.837C185.34 0 180.006 2.28713 176.415 6.61271C172.933 10.8026 171.167 16.7032 171.167 24.1411V103.855C171.167 111.293 172.933 117.19 176.415 121.384C180.006 125.709 185.34 127.996 191.837 127.996C198.335 127.996 203.808 125.72 207.459 121.41C211.02 117.209 212.827 111.301 212.827 103.855V83.4293H217.529L235.846 115.803C238.989 121.481 244.026 127.992 255.116 127.992C263.115 127.992 269.766 124.112 273.361 117.344C277.314 109.906 276.595 100.581 271.487 93.0036L259.606 75.4225C264.285 72.3817 268.016 68.5083 270.73 63.8663V63.8625ZM253.346 71.4134L250.071 73.1353L266.002 96.7112C269.732 102.25 270.312 108.961 267.515 114.232C265.106 118.765 260.589 121.365 255.119 121.365C249.943 121.365 245.671 119.869 241.635 112.578L221.391 76.8015H206.206V103.855C206.206 109.684 204.93 114.149 202.411 117.122C200.025 119.94 196.467 121.368 191.837 121.368C187.207 121.368 183.834 119.948 181.508 117.148C179.042 114.179 177.793 109.707 177.793 103.855V24.1411C177.793 18.2895 179.042 13.8207 181.508 10.8478C183.834 8.04828 187.309 6.62777 191.837 6.62777H227.523C240.002 6.62777 250.324 9.36705 257.378 14.5442C265.4 20.4372 269.469 29.6045 269.469 41.7975C269.469 55.8217 264.044 65.7879 253.35 71.4096L253.346 71.4134Z" fill="#8E48FF"/>
<path d="M380.561 17.0914C370.303 6.07026 355.784 0.00390625 339.681 0.00390625C323.577 0.00390625 309.442 5.79142 299.417 16.741C289.02 28.0937 283.528 44.4352 283.528 63.9945C283.528 83.5538 289.024 99.899 299.417 111.256C309.442 122.205 323.366 127.993 339.684 127.993C356.003 127.993 370.307 121.922 380.565 110.905C391.316 99.3564 397 83.1355 397 63.9945C397 44.8535 391.316 28.6401 380.565 17.0914H380.561ZM375.716 106.384C371.222 111.214 365.843 114.952 359.733 117.503C353.59 120.065 346.84 121.365 339.681 121.365C325.271 121.365 313.037 116.32 304.296 106.775C295.04 96.6661 290.146 81.8695 290.146 63.9945C290.146 46.1195 295.04 31.3266 304.296 21.2173C313.033 11.6731 325.271 6.6279 339.681 6.6279C346.84 6.6279 353.59 7.92784 359.733 10.49C365.843 13.0371 371.222 16.7787 375.716 21.6054C385.304 31.9069 390.375 46.5641 390.375 63.9907C390.375 81.4173 385.308 96.0783 375.716 106.38V106.384Z" fill="#8E48FF"/>
<path d="M339.685 29.6045C332.348 29.6045 326.325 32.7733 322.267 38.7681C318.273 44.6649 316.248 53.154 316.248 63.9981C316.248 74.8421 318.273 83.2446 322.263 89.164C326.336 95.204 332.359 98.3954 339.685 98.3954C347.01 98.3954 353.255 95.2379 357.614 89.2657C362.037 83.2107 364.277 74.7065 364.277 63.9981C364.277 53.2896 362.033 44.7025 357.61 38.6663C353.263 32.7394 347.066 29.6045 339.685 29.6045ZM339.685 91.7639C325.057 91.7639 322.869 74.3674 322.869 63.9943C322.869 54.6348 324.556 47.1969 327.748 42.4832C330.556 38.3348 334.573 36.2323 339.685 36.2323C344.797 36.2323 349.178 38.3687 352.273 42.585C355.796 47.3891 357.656 54.793 357.656 63.9943C357.656 81.3832 350.936 91.7639 339.685 91.7639Z" fill="#8E48FF"/>
<path d="M76.634 55.3773L97.9513 34.7931C104.908 28.0071 107.189 19.3446 104.053 11.6242C101.185 4.56309 94.2698 0.00390625 86.44 0.00390625C77.4207 0.00390625 72.9638 4.70626 68.2471 9.68745C67.6787 10.2866 67.0952 10.9045 66.4741 11.545L45.6273 33.237C44.2307 34.6348 42.8191 36.0817 41.4527 37.5851V23.8737C41.4527 8.93011 33.6417 0.00767785 20.5607 0.00767785C7.4797 0.00767785 0 8.93011 0 23.8737V104.127C0 119.074 7.68674 128 20.5607 128C33.4347 128 41.4527 119.078 41.4527 104.127V89.4129L47.9198 83.1431L66.9785 115.977C70.1594 121.576 75.2487 127.996 86.4438 127.996C94.5371 127.996 101.486 123.957 105.028 117.19C108.86 109.869 108.074 100.735 102.965 93.3541L76.6415 55.3773H76.634ZM99.1559 114.112C96.743 118.72 92.1091 121.365 86.44 121.365C79.1448 121.365 75.6816 117.895 72.7229 112.684L49.3879 72.4836L34.8237 86.602V104.123C34.8237 111.99 32.3468 121.365 20.5532 121.365C8.75957 121.365 6.61391 111.986 6.61391 104.123V23.8699C6.61391 16.0063 9.0306 6.63168 20.5532 6.63168C32.0758 6.63168 34.8237 16.0063 34.8237 23.8699V47.2235L40.9407 48.9793C43.4176 45.0117 46.9185 41.3078 50.3327 37.8903L71.2322 16.1494C71.8608 15.5014 72.4631 14.8646 73.0504 14.2466C77.5487 9.49906 80.2628 6.63168 86.4363 6.63168C91.5595 6.63168 96.0654 9.57065 97.9137 14.1223C99.9991 19.258 98.2864 25.2113 93.3363 30.038L67.9798 54.5257L97.5147 97.1333C101.211 102.476 101.84 108.983 99.1522 114.115L99.1559 114.112Z" fill="#8E48FF"/>
</svg>
